<svg width="500" height="270" viewBox="0 0 500 270" fill="none" xmlns="http://www.w3.org/2000/svg">
<path d="M80.4878 77.434C80.4878 34.6684 121.983 0 173.171 0H326.829C378.017 0 419.512 34.6684 419.512 77.434V192.566C419.512 235.332 378.017 270 326.829 270H173.171C121.983 270 80.4878 235.266 80.4878 192.5V77.434Z" fill="#F5CB5B"/>
<path d="M0 0H249.662C143.828 40.9293 249.735 77.9017 249.662 180.34H80.4878C80.4878 77.434 88.7114 45.5 0 0Z" fill="#F5CB5B"/>
<path d="M500 0H250.338C356.172 40.9293 250.265 77.9017 250.338 180.34H419.512C419.512 77.434 411.015 45 500 0Z" fill="#F5CB5B"/>
</svg>
